<svg xmlns="http://www.w3.org/2000/svg" width="424.152" height="462.982" viewBox="0 0 424.152 462.982"><path d="M335.27,515.133H471.73V365.65H335.27Zm68.23-111.9A36.863,36.863,0,1,1,366.637,440.1,36.5,36.5,0,0,1,403.5,403.237Z" transform="translate(-191.544 -208.9)" fill="#681238"/><path d="M65.371,515.133H136.46V365.65H88.824v59.193a20.5,20.5,0,1,1-6.915,18.614L71.171,365.706H0V515.065H47.752V455.812a20.506,20.506,0,1,1-13.517-35.924c9.851,0,18.939,7.335,20.054,16.2l11.082,79.046Z" transform="translate(0 -208.9)" fill="#681238"/><path d="M400.641,149.483H471.73V0H424.094V59.193a20.5,20.5,0,1,1-6.915,18.614L406.445.051H335.27V149.41h47.751V90.157A20.506,20.506,0,1,1,369.5,54.233c9.851,0,18.939,7.335,20.054,16.2Z" transform="translate(-191.544)" fill="#681238"/><path d="M807.554,515.133V365.65H759.918v59.2a20.5,20.5,0,1,1-6.9,18.661,19.429,19.429,0,0,1-.407-4.051l.009-73.756H726.112l-.017,74.562v.124a20.52,20.52,0,1,1-7.253-15.643V365.7H671.09V515.056l136.46.069Z" transform="translate(-383.402 -208.9)" fill="#681238"/><path d="M471.724,880.783V731.3H424.088v59.2a20.5,20.5,0,1,1-6.9,18.661,19.429,19.429,0,0,1-.407-4.051l.009-73.756H390.282l-.017,74.562v.124a20.52,20.52,0,1,1-7.253-15.643V731.347H335.26V880.706l136.46.069Z" transform="translate(-191.538 -417.801)" fill="#681238"/></svg>