<svg xmlns="http://www.w3.org/2000/svg" width="198.886" height="34.765" viewBox="0 0 198.886 34.765"><path d="M322.72,34.872h31.739V.12H322.72ZM338.589,8.918a8.574,8.574,0,1,1-8.574,8.574A8.491,8.491,0,0,1,338.589,8.918Z" transform="translate(-289.29 -0.108)" fill="#681238"/><path d="M15.2,34.872H31.739V.12H20.66V13.888a4.769,4.769,0,1,1-1.608,4.329L16.554.132H0v34.74H11.107V21.09a4.77,4.77,0,1,1-3.144-8.356,4.7,4.7,0,0,1,4.664,3.77L15.2,34.873Z" transform="translate(0 -0.108)" fill="#681238"/><path d="M664.384.012h-6.166l0,17.372a4.774,4.774,0,1,1-1.687-3.638V.012H645.42V34.765h31.739V0H666.08V13.769a4.77,4.77,0,1,1,3.11,8.385,4.872,4.872,0,0,1-4.868-4.77Z" transform="translate(-578.562)" fill="#681238"/><path d="M1290.88,34.872h31.739V.12H1290.88Zm15.87-25.95a8.574,8.574,0,1,1-8.574,8.574,8.491,8.491,0,0,1,8.574-8.574Z" transform="translate(-1157.161 -0.108)" fill="#681238"/><path d="M983.365,34.872H999.9V.12H988.82V13.888a4.769,4.769,0,1,1-1.608,4.329L984.715.132H968.16v34.74h11.107V21.09a4.77,4.77,0,1,1-3.144-8.356,4.7,4.7,0,0,1,4.664,3.77l2.578,18.369Z" transform="translate(-867.871 -0.108)" fill="#681238"/><path d="M1632.544.012h-6.165l0,17.372a4.775,4.775,0,1,1-1.688-3.638V.012H1613.58V34.765h31.739V0h-11.08V13.769a4.77,4.77,0,1,1,3.109,8.385,4.872,4.872,0,0,1-4.867-4.77l.06-17.372Z" transform="translate(-1446.433)" fill="#681238"/></svg>